<svg id="visual" viewBox="0 0 2000 900" width="2000" height="900" xmlns="http://www.w3.org/2000/svg" xmlns:xlink="http://www.w3.org/1999/xlink" version="1.1"><rect width="2000" height="900" fill="#edf2f4"></rect><g><g transform="translate(1014 390)"><path d="M104.4 -104.1C142.2 -92.7 184.5 -66.3 200.6 -27.6C216.7 11.1 206.5 62.3 175.2 86.7C143.9 111.2 91.4 109.1 49.4 115.5C7.5 122 -24 137.1 -66.8 140.3C-109.6 143.4 -163.9 134.7 -196.7 101.9C-229.6 69.1 -241.1 12.3 -231.9 -41C-222.6 -94.3 -192.6 -144.1 -150.5 -154.8C-108.4 -165.5 -54.2 -137.2 -10.5 -124.7C33.3 -112.2 66.6 -115.6 104.4 -104.1Z" fill="#6a040f"></path></g><g transform="translate(1569 494)"><path d="M62.6 -60C89.8 -51.8 126.5 -40.3 137.3 -18.4C148 3.4 132.8 35.7 115.1 66.7C97.5 97.7 77.3 127.4 51.2 134.2C25 141 -7.3 124.8 -32.7 107.7C-58.1 90.7 -76.8 72.9 -83 52.6C-89.2 32.2 -83.1 9.3 -77 -11.6C-70.9 -32.5 -65 -51.5 -52.2 -62.3C-39.4 -73.1 -19.7 -75.7 -1 -74.5C17.7 -73.3 35.4 -68.3 62.6 -60Z" fill="#6a040f"></path></g><g transform="translate(300 534)"><path d="M109.3 -128.6C134.3 -109.3 142.1 -67.9 142.2 -30.5C142.3 6.8 134.6 40.1 121.5 76.9C108.3 113.8 89.6 154.2 60.3 164.2C31.1 174.1 -8.6 153.5 -49.2 137.7C-89.8 121.8 -131.2 110.8 -142.1 85.3C-152.9 59.8 -133.2 19.9 -122.9 -18.8C-112.7 -57.5 -111.9 -95 -93 -115.3C-74.1 -135.7 -37 -139 2.6 -142C42.1 -145.1 84.3 -147.9 109.3 -128.6Z" fill="#6a040f"></path></g></g></svg>